<?xml version="1.0" encoding="UTF-8"?>
<svg xmlns="http://www.w3.org/2000/svg" xmlns:xlink="http://www.w3.org/1999/xlink" viewBox="0 0 48 48" width="48px" height="48px">
<g id="surface4206228">
<path style=" stroke:none;fill-rule:nonzero;fill:rgb(20.392157%,59.607846%,85.882354%);fill-opacity:1;" d="M 30.46875 26.226562 L 47.441406 43.199219 L 43.199219 47.441406 L 26.226562 30.46875 Z M 30.46875 26.226562 "/>
<path style=" stroke:none;fill-rule:nonzero;fill:rgb(21.176471%,78.431374%,96.470588%);fill-opacity:1;" d="M 42 21 C 42 32.597656 32.597656 42 21 42 C 9.402344 42 0 32.597656 0 21 C 0 9.402344 9.402344 0 21 0 C 32.597656 0 42 9.402344 42 21 Z M 42 21 "/>
<path style=" stroke:none;fill-rule:nonzero;fill:rgb(63.529414%,89.411765%,95.686275%);fill-opacity:1;" d="M 16.316406 22.683594 C 14.558594 20.925781 14.558594 18.074219 16.316406 16.320312 C 18.074219 14.5625 20.925781 14.5625 22.679688 16.320312 L 26.921875 12.078125 C 22.820312 7.976562 16.171875 7.976562 12.070312 12.078125 C 7.972656 16.179688 7.972656 22.828125 12.070312 26.929688 Z M 16.316406 22.683594 "/>
</g>
</svg>
